<?xml version="1.0" standalone="no"?>
<!DOCTYPE svg PUBLIC "-//W3C//DTD SVG 20010904//EN"
 "http://www.w3.org/TR/2001/REC-SVG-20010904/DTD/svg10.dtd">
<svg version="1.0" xmlns="http://www.w3.org/2000/svg"
 width="499.000000pt" height="361.000000pt" viewBox="0 0 499.000000 361.000000"
 preserveAspectRatio="xMidYMid meet">

<g transform="translate(0.000000,361.000000) scale(0.100000,-0.100000)"
fill="#000000" stroke="none">
<path d="M1530 3423 l0 -138 54 0 c67 0 101 -22 135 -90 21 -40 26 -65 29
-165 4 -101 1 -129 -17 -191 -19 -59 -31 -81 -75 -124 -48 -48 -137 -95 -181
-95 -30 0 -16 -234 26 -450 107 -538 466 -1024 943 -1275 l92 -49 99 53 c137
71 269 167 392 285 365 348 556 776 589 1322 l7 111 -38 7 c-104 20 -198 97
-236 194 -20 48 -23 76 -24 177 0 142 17 204 71 256 31 30 41 34 90 33 l54 0
0 138 0 138 -1005 0 -1005 0 0 -137z m1478 -101 c16 -16 20 -41 25 -148 17
-353 112 -594 275 -702 57 -37 57 -38 60 -92 8 -134 -44 -333 -132 -507 -108
-214 -335 -444 -586 -592 -47 -28 -96 -51 -110 -51 -31 0 -176 82 -279 157
-42 31 -125 106 -186 167 -228 230 -343 469 -370 767 -9 96 -3 115 43 138 65
33 139 123 186 224 24 50 51 119 60 152 23 87 46 248 46 330 1 87 14 155 31
166 8 5 218 9 467 9 425 0 453 -1 470 -18z"/>
<path d="M2100 3288 c-18 -294 -37 -413 -90 -560 -49 -135 -127 -243 -221
-305 -21 -14 -39 -31 -39 -37 0 -36 23 -190 37 -246 79 -323 342 -637 699
-835 l52 -29 83 48 c192 111 391 291 498 449 114 169 185 366 197 547 l6 85
-37 20 c-95 50 -199 212 -250 389 -30 105 -55 286 -55 397 l0 79 -440 0 c-242
0 -440 -1 -440 -2z m795 -717 c22 -10 49 -28 59 -40 20 -22 20 -22 -12 -54
-28 -27 -35 -30 -50 -19 -68 49 -134 49 -161 0 -27 -47 -5 -72 113 -128 111
-53 140 -79 156 -141 32 -118 -58 -219 -195 -219 -85 1 -159 38 -199 101 -16
26 -16 26 24 53 48 31 57 32 65 5 18 -57 136 -79 180 -34 54 53 21 102 -102
153 -103 42 -144 83 -151 151 -2 27 -2 61 2 75 9 35 54 86 91 102 44 19 133
17 180 -5z m-666 -209 c41 -119 77 -221 81 -225 4 -5 40 90 80 210 40 120 76
222 80 226 4 4 32 7 62 5 l54 -3 -106 -295 -107 -295 -60 -3 -59 -3 -104 288
c-57 158 -105 294 -108 301 -3 9 12 12 54 12 l59 0 74 -218z"/>
<path d="M1294 3383 c-23 -49 -28 -75 -32 -168 l-5 -110 23 20 c43 38 70 113
70 195 0 79 -7 120 -20 120 -5 0 -21 -26 -36 -57z"/>
<path d="M3733 3425 c-4 -11 -8 -58 -8 -105 1 -72 5 -93 27 -136 15 -27 33
-56 41 -62 12 -10 15 -5 20 30 12 87 -16 220 -56 273 l-16 20 -8 -20z"/>
<path d="M1060 3212 c0 -21 7 -61 15 -88 16 -54 85 -176 104 -182 17 -6 14
107 -4 159 -16 46 -89 149 -105 149 -6 0 -10 -17 -10 -38z"/>
<path d="M3966 3210 c-64 -71 -100 -183 -82 -256 7 -28 8 -27 50 38 51 79 78
160 74 219 l-3 42 -39 -43z"/>
<path d="M1382 3153 c-38 -38 -79 -84 -92 -103 l-25 -35 39 30 c51 39 152 140
159 160 12 31 -15 13 -81 -52z"/>
<path d="M3610 3208 c0 -12 98 -113 158 -162 44 -38 21 5 -40 69 -71 77 -118
113 -118 93z"/>
<path d="M1551 3198 c-33 -9 -34 -9 -12 -25 21 -14 134 -63 147 -63 9 0 -5 52
-22 78 -16 24 -53 28 -113 10z"/>
<path d="M3410 3190 c-22 -41 -30 -80 -17 -80 7 0 46 16 86 35 85 41 84 53 -2
62 -50 5 -56 4 -67 -17z"/>
<path d="M1441 3049 c-23 -4 -64 -21 -90 -36 l-46 -27 40 -9 c69 -15 204 -3
260 22 l50 23 -30 13 c-42 18 -132 25 -184 14z"/>
<path d="M3488 3046 c-32 -7 -60 -15 -63 -18 -3 -3 15 -16 41 -29 53 -25 169
-37 249 -25 56 9 50 23 -23 54 -64 27 -135 33 -204 18z"/>
<path d="M935 3003 c10 -58 62 -147 122 -210 l54 -58 -5 57 c-6 74 -46 147
-111 204 -27 24 -54 44 -58 44 -5 0 -6 -17 -2 -37z"/>
<path d="M4092 3008 c-51 -41 -87 -89 -106 -142 -20 -56 -27 -104 -17 -111 13
-8 109 101 136 156 23 44 44 129 33 129 -3 0 -24 -15 -46 -32z"/>
<path d="M1245 2955 c-4 -22 -16 -49 -26 -60 -18 -20 -53 -105 -46 -112 2 -1
13 7 24 20 32 34 70 137 63 167 -6 23 -8 21 -15 -15z"/>
<path d="M3816 2968 c-11 -25 32 -138 66 -173 l28 -30 -16 50 c-9 28 -25 59
-35 70 -10 12 -22 39 -27 60 -7 29 -11 36 -16 23z"/>
<path d="M1363 2835 c-60 -18 -127 -60 -148 -91 l-17 -27 53 6 c30 3 77 13
106 21 54 17 144 72 151 94 5 16 -89 15 -145 -3z"/>
<path d="M3598 2810 c47 -43 134 -76 223 -87 l54 -6 -16 24 c-40 62 -152 110
-257 109 l-47 -1 43 -39z"/>
<path d="M830 2734 c0 -28 121 -138 189 -172 35 -18 66 -30 68 -28 7 6 -34 80
-62 114 -25 30 -153 102 -181 102 -8 0 -14 -7 -14 -16z"/>
<path d="M4176 2730 c-91 -36 -161 -100 -181 -167 -9 -31 5 -29 76 8 77 41
135 92 160 140 23 45 17 47 -55 19z"/>
<path d="M1145 2657 c-3 -12 -6 -87 -8 -167 -1 -111 1 -153 13 -178 11 -26 12
-36 3 -51 -15 -23 8 -185 32 -231 8 -16 15 -38 15 -49 0 -39 42 -136 71 -164
20 -19 29 -38 29 -58 0 -102 304 -424 443 -471 18 -6 39 -17 48 -24 9 -8 49
-25 90 -39 67 -23 72 -24 54 -6 -11 11 -48 31 -82 45 -180 75 -344 215 -459
391 -121 186 -179 347 -209 578 -8 65 -20 127 -25 138 -7 13 -8 32 -1 57 5 20
12 83 16 138 5 87 4 102 -9 107 -11 4 -17 -1 -21 -16z"/>
<path d="M3903 2674 c-13 -6 -8 -137 9 -227 8 -41 8 -64 0 -80 -5 -12 -17 -77
-26 -144 -29 -217 -83 -372 -187 -539 -61 -97 -183 -233 -270 -299 -63 -50
-184 -116 -240 -134 -20 -7 -45 -21 -54 -31 -17 -18 -13 -18 51 4 219 76 392
212 529 416 50 74 63 101 59 121 -5 20 1 31 23 50 29 24 93 163 81 175 -4 3 2
24 12 47 28 63 45 200 30 236 -10 24 -9 33 4 53 15 23 18 89 12 233 -6 136 -4
130 -33 119z"/>
<path d="M1357 2599 c-54 -28 -113 -92 -133 -145 -9 -24 -15 -46 -13 -49 8 -7
133 72 162 103 23 24 28 37 25 70 l-3 40 -38 -19z"/>
<path d="M3670 2576 c0 -43 3 -48 52 -86 56 -45 127 -85 135 -76 10 10 -19 75
-51 112 -19 22 -57 52 -85 67 l-51 28 0 -45z"/>
<path d="M814 2391 c16 -16 51 -39 79 -51 59 -26 195 -55 205 -45 4 4 -14 26
-39 49 -56 50 -127 76 -212 76 l-61 0 28 -29z"/>
<path d="M4096 2395 c-59 -24 -99 -54 -118 -89 -9 -17 -6 -18 44 -11 29 4 80
16 112 27 61 20 146 72 146 88 0 20 -124 10 -184 -15z"/>
<path d="M3656 2351 c-8 -55 16 -102 95 -183 l60 -63 -5 53 c-6 65 -44 136
-101 192 l-42 41 -7 -40z"/>
<path d="M1356 2339 c-21 -23 -49 -64 -62 -93 -24 -51 -32 -126 -14 -126 12 0
105 112 126 151 17 33 16 100 -2 106 -6 2 -28 -15 -48 -38z"/>
<path d="M830 2122 c0 -18 76 -69 137 -92 30 -11 82 -23 116 -27 60 -6 60 -6
46 15 -22 31 -62 60 -114 83 -53 24 -185 38 -185 21z"/>
<path d="M4107 2119 c-55 -13 -108 -43 -146 -83 l-35 -36 32 0 c89 0 217 48
267 100 l29 30 -55 -1 c-30 -1 -71 -5 -92 -10z"/>
<path d="M1405 2073 c-19 -25 -42 -69 -50 -96 -17 -56 -20 -117 -6 -117 11 0
71 74 103 128 22 38 24 47 15 87 -6 25 -14 45 -18 45 -5 0 -24 -21 -44 -47z"/>
<path d="M3617 2113 c-3 -5 -9 -27 -12 -49 -6 -34 -1 -47 33 -99 21 -33 52
-71 67 -85 l27 -25 -4 60 c-2 33 -12 77 -22 97 -23 49 -81 114 -89 101z"/>
<path d="M475 2016 c-16 -7 -37 -22 -47 -32 -20 -23 -38 -87 -38 -134 0 -92
-37 -141 -94 -126 -52 13 -74 110 -36 158 l19 25 -28 27 -28 27 -22 -27 c-12
-15 -24 -39 -27 -53 -3 -14 -7 -34 -9 -43 -6 -31 16 -102 41 -135 47 -62 111
-78 174 -44 49 26 71 69 81 162 11 95 20 116 56 125 54 14 94 -41 77 -106 -11
-39 -10 -41 17 -55 37 -19 35 -20 48 16 27 79 -5 176 -69 210 -40 22 -73 23
-115 5z"/>
<path d="M4584 1961 c-75 -34 -117 -127 -94 -210 39 -145 235 -173 307 -44 43
77 38 166 -12 213 l-24 23 -11 -27 c-13 -36 -13 -42 6 -71 37 -56 -19 -145
-91 -145 l-32 0 42 133 c37 116 40 133 26 139 -29 12 -75 8 -117 -11z m56 -68
c0 -22 -53 -163 -61 -163 -6 0 -17 16 -25 36 -18 43 -5 95 29 119 22 16 57 20
57 8z"/>
<path d="M3522 1811 c-13 -29 -20 -61 -17 -71 9 -27 55 -109 65 -115 12 -7 24
78 17 120 -3 18 -14 52 -24 76 l-19 43 -22 -53z"/>
<path d="M1505 1808 c-19 -47 -24 -163 -8 -179 11 -11 73 96 73 125 0 22 -31
96 -40 96 -4 0 -16 -19 -25 -42z"/>
<path d="M957 1816 c-53 -19 -54 -22 -15 -42 55 -29 298 -32 298 -3 0 5 -19
18 -42 31 -55 27 -184 35 -241 14z"/>
<path d="M3907 1815 c-20 -8 -47 -21 -59 -29 -21 -15 -21 -16 -2 -23 10 -4 71
-8 134 -8 94 0 122 4 154 20 l40 19 -35 15 c-49 20 -185 24 -232 6z"/>
<path d="M4407 1614 c-9 -19 -21 -34 -27 -34 -6 0 -33 11 -60 25 -27 14 -52
25 -54 25 -5 0 -36 -54 -36 -63 0 -2 27 -16 60 -32 33 -16 59 -34 56 -39 -2
-6 -7 -18 -10 -27 -5 -10 1 -19 18 -27 21 -9 26 -8 39 11 l14 22 92 -44 c73
-35 98 -42 124 -37 38 7 70 37 86 79 10 25 8 29 -14 39 -22 10 -27 8 -46 -15
-11 -15 -29 -27 -40 -27 -15 0 -152 62 -167 75 -2 2 4 17 12 34 21 40 20 46
-8 59 -21 9 -25 7 -39 -24z"/>
<path d="M1625 1590 c-4 -22 -4 -59 0 -82 l7 -42 19 23 c30 37 32 64 9 104
-12 20 -23 37 -25 37 -2 0 -6 -18 -10 -40z"/>
<path d="M3411 1587 l-23 -42 23 -39 c20 -34 24 -36 30 -20 10 26 11 132 1
138 -4 3 -18 -14 -31 -37z"/>
<path d="M425 1604 c-46 -23 -83 -63 -96 -102 -27 -82 17 -188 94 -223 38 -17
97 -26 97 -14 0 25 -31 61 -67 76 -51 22 -78 66 -69 114 7 37 41 74 56 59 5
-5 36 -60 68 -121 l58 -111 25 15 c58 35 88 114 69 182 -29 107 -148 171 -235
125z m109 -64 c8 0 25 -12 40 -26 30 -30 36 -87 12 -119 -13 -18 -17 -13 -55
63 -46 91 -47 97 -25 88 9 -3 21 -6 28 -6z"/>
<path d="M1067 1582 c-27 -9 -48 -21 -48 -27 0 -5 17 -15 38 -23 46 -16 209
-11 263 9 l35 13 -50 23 c-62 28 -166 31 -238 5z"/>
<path d="M3771 1580 c-52 -24 -47 -34 27 -49 81 -17 190 -13 237 7 l39 18 -44
19 c-69 28 -203 30 -259 5z"/>
<path d="M738 1288 c-126 -98 -228 -182 -228 -186 0 -4 9 -18 19 -31 l18 -24
86 66 c93 73 130 84 167 47 40 -40 25 -69 -80 -151 -44 -34 -80 -67 -80 -74 0
-6 9 -20 20 -30 19 -17 22 -16 92 38 103 79 129 108 135 154 7 52 -17 97 -63
121 l-35 18 111 87 c93 74 109 90 101 106 -25 47 -29 45 -263 -141z"/>
<path d="M4286 1388 c-9 -12 -16 -25 -16 -29 0 -4 40 -34 89 -68 88 -60 101
-75 101 -112 0 -26 -35 -59 -63 -59 -13 0 -62 27 -110 60 -47 33 -90 60 -95
60 -10 0 -46 -50 -40 -54 44 -36 202 -135 221 -140 91 -23 195 129 143 208
-14 23 -171 141 -201 152 -7 3 -20 -5 -29 -18z"/>
<path d="M1314 1390 c-22 -5 -58 -16 -80 -25 l-39 -16 29 -16 c41 -22 139 -28
222 -14 97 17 105 24 52 48 -52 25 -129 34 -184 23z"/>
<path d="M3640 1391 c-19 -4 -53 -17 -75 -28 l-39 -20 71 -17 c111 -25 259
-14 270 20 8 25 -163 59 -227 45z"/>
<path d="M1500 1230 c-30 -11 -79 -37 -110 -57 -53 -35 -54 -37 -30 -44 76
-22 186 -1 314 59 l79 36 -29 13 c-45 19 -161 15 -224 -7z"/>
<path d="M3355 1237 l-30 -14 75 -36 c121 -58 252 -82 314 -58 17 7 16 10 -15
34 -69 52 -148 81 -234 84 -52 2 -90 -1 -110 -10z"/>
<path d="M3927 1152 c-25 -27 -22 -37 30 -81 47 -40 47 -40 28 -61 -18 -20
-18 -21 3 -42 21 -21 22 -21 42 -3 20 18 21 17 89 -43 38 -34 81 -66 96 -72
37 -14 88 3 115 38 l21 26 -20 20 c-19 19 -21 19 -39 3 -33 -30 -63 -20 -132
43 l-64 60 29 30 29 30 -23 23 -22 22 -23 -27 c-12 -16 -25 -28 -30 -28 -5 0
-30 18 -56 40 -26 22 -50 40 -52 40 -3 0 -12 -8 -21 -18z"/>
<path d="M1795 1126 c-79 -25 -148 -68 -211 -132 -35 -36 -64 -70 -64 -75 0
-5 20 -9 45 -9 51 0 152 35 216 75 58 37 179 135 179 146 0 13 -119 10 -165
-5z"/>
<path d="M3167 1083 c114 -107 255 -176 346 -171 l52 3 -75 76 c-104 104 -180
141 -298 146 l-87 4 62 -58z"/>
<path d="M3787 1032 c-31 -34 -14 -72 30 -72 16 0 27 9 35 26 11 23 10 29 -11
45 -29 23 -34 24 -54 1z"/>
<path d="M945 958 c-33 -35 -85 -89 -114 -120 l-55 -58 24 -25 24 -25 77 75
c69 68 80 75 117 75 25 0 49 -8 67 -22 l27 -21 19 24 c16 22 16 25 2 41 -18
21 -78 42 -93 33 -14 -9 -13 8 2 23 10 10 7 18 -13 37 l-25 25 -59 -62z"/>
<path d="M3888 917 l-27 -22 105 -120 c58 -66 109 -121 113 -123 4 -1 17 8 29
21 l22 23 -91 104 c-135 155 -119 144 -151 117z"/>
<path d="M3615 880 c-17 -18 -16 -21 21 -71 l38 -52 -23 -18 -23 -19 20 -25
c17 -21 21 -23 32 -10 7 8 18 15 24 15 6 -1 38 -38 71 -82 79 -108 124 -122
192 -64 27 24 27 24 9 45 -14 15 -23 18 -37 11 -44 -24 -66 -13 -119 62 l-51
73 32 26 c28 22 30 28 20 47 -14 27 -22 27 -55 1 -31 -24 -36 -21 -76 37 -34
49 -48 53 -75 24z"/>
<path d="M1165 795 c-83 -29 -139 -129 -116 -206 23 -76 84 -123 158 -121 38
0 43 -2 43 -23 0 -27 36 -75 55 -75 21 0 40 39 26 53 -20 20 -12 41 54 139 36
54 65 100 65 103 0 2 -11 12 -25 21 -19 12 -28 14 -39 5 -11 -9 -16 -5 -26 19
-16 39 -61 77 -108 90 -45 12 -38 12 -87 -5z m126 -94 c40 -40 41 -106 3 -145
-54 -53 -151 -32 -174 39 -15 44 -4 80 32 110 43 36 100 34 139 -4z"/>
<path d="M3513 665 c-66 -28 -86 -107 -40 -160 20 -24 29 -26 102 -28 68 -2
80 -5 83 -20 6 -28 -17 -47 -58 -47 -57 0 -95 -51 -47 -64 61 -16 118 2 156
50 31 39 28 89 -8 125 -27 27 -35 29 -104 29 -61 0 -76 3 -81 17 -9 22 14 43
49 47 30 3 50 28 41 52 -7 18 -51 18 -93 -1z"/>
<path d="M1486 541 c-3 -53 -6 -132 -6 -176 l0 -81 36 -13 c20 -7 39 -9 43 -5
5 5 38 46 75 92 37 45 70 82 72 82 3 0 4 -55 2 -121 l-3 -122 35 -12 34 -12
108 130 c59 71 108 132 108 137 0 6 -52 30 -65 30 -2 0 -37 -45 -80 -100 -42
-55 -78 -100 -81 -100 -2 0 -1 58 2 130 l7 129 -28 11 c-22 8 -31 8 -40 -2 -6
-7 -42 -50 -79 -95 -37 -46 -70 -83 -73 -83 -6 0 6 205 13 231 3 11 -7 20 -34
31 l-39 15 -7 -96z"/>
<path d="M2898 613 c-16 -2 -28 -9 -28 -14 0 -5 22 -114 50 -242 27 -127 50
-235 50 -238 0 -11 62 4 66 16 3 7 -16 111 -41 232 -54 252 -54 253 -63 252
-4 -1 -19 -4 -34 -6z"/>
<path d="M2480 470 c0 -68 -1 -70 -25 -70 -22 0 -25 -4 -25 -35 0 -31 3 -35
25 -35 24 0 25 -3 26 -57 1 -149 31 -205 111 -207 41 -1 43 0 46 32 3 29 1 32
-25 32 -46 0 -53 15 -53 117 l0 93 40 0 c38 0 40 2 40 30 0 29 -2 30 -45 30
l-45 0 0 70 0 70 -35 0 -35 0 0 -70z"/>
<path d="M3190 508 c-22 -21 -34 -28 -39 -20 -6 9 -15 9 -39 1 -18 -6 -32 -13
-32 -16 0 -8 99 -284 108 -298 6 -11 13 -11 39 0 l31 13 -34 94 c-18 51 -34
105 -34 120 0 47 57 81 98 59 18 -10 71 -128 88 -198 6 -22 11 -24 37 -19 17
3 33 9 36 12 7 7 -57 191 -80 230 -22 37 -57 54 -109 54 -30 0 -45 -7 -70 -32z"/>
<path d="M2077 407 c-147 -91 -91 -319 78 -319 24 0 56 7 73 16 30 15 31 15
61 -14 17 -18 40 -30 55 -30 22 0 26 5 26 29 0 18 -8 34 -21 42 -20 14 -20 14
-3 137 9 67 15 124 13 126 -2 2 -19 6 -36 9 -25 5 -33 3 -33 -8 0 -20 -5 -19
-40 7 -45 33 -125 35 -173 5z m136 -58 c35 -18 57 -51 57 -89 0 -44 -23 -78
-65 -96 -91 -38 -177 61 -125 144 30 48 86 65 133 41z"/>
</g>
</svg>
